<svg width="40" height="40" viewBox="0 0 40 40" fill="none" xmlns="http://www.w3.org/2000/svg">
<g clip-path="url(#clip0_7752_513)">
<path d="M14.7243 27.8242L3.17676 39.3038C3.90594 39.6509 4.71917 39.8509 5.58159 39.8509H21.1909L14.7243 27.8242Z" fill="#AF8C3E"/>
<path d="M0 17.5664V31.9966L9.45971 22.5926L0 17.5664Z" fill="#AF8C3E"/>
<path d="M34.4179 0.0742188H5.58275C2.50015 0.0742188 0.000976562 2.55866 0.000976562 5.6231V12.0013L2.25335 12.3009L3.87536 10.6884C4.4494 10.1178 5.37976 10.1178 5.95336 10.6884C6.52741 11.2591 6.52741 12.184 5.95336 12.7542L5.91939 12.788L17.7406 14.36L22.1367 9.98977C22.9843 9.14711 23.9259 8.41377 24.9323 7.8071C25.9386 7.20044 27.0103 6.72044 28.1186 6.38399C29.0758 6.09333 29.9498 6.34088 30.5109 6.8991C31.0724 7.45732 31.3214 8.32578 31.0291 9.27733C30.6906 10.3791 30.2078 11.4444 29.5975 12.4449C28.9873 13.4453 28.2496 14.3809 27.4019 15.224L23.0058 19.5942L24.5871 31.3458L24.6211 31.312C25.1951 30.7413 26.1255 30.7413 26.6991 31.312C27.2732 31.8827 27.2732 32.8076 26.6991 33.3778L25.0771 34.9902L25.7312 39.8524H34.4183C37.5009 39.8524 40.0001 37.368 40.0001 34.3035V5.62355C39.9997 2.55866 37.5005 0.0742188 34.4179 0.0742188Z" fill="#AF8C3E"/>
</g>
<defs>
<clipPath id="clip0_7752_513">
<rect width="40" height="40" fill="white"/>
</clipPath>
</defs>
</svg>
