<svg width="165" height="51" viewBox="0 0 165 51" fill="none" xmlns="http://www.w3.org/2000/svg">
<g clip-path="url(#clip0_7769_1439)">
<path d="M14.7243 33.3242L3.17676 44.8038C3.90594 45.1509 4.71917 45.3509 5.58159 45.3509H21.1909L14.7243 33.3242Z" fill="#AF8C3E"/>
<path d="M0 23.0664V37.4966L9.45971 28.0926L0 23.0664Z" fill="#AF8C3E"/>
<path d="M34.4179 5.57422H5.58275C2.50015 5.57422 0.000976562 8.05866 0.000976562 11.1231V17.5013L2.25335 17.8009L3.87536 16.1884C4.4494 15.6178 5.37976 15.6178 5.95336 16.1884C6.52741 16.7591 6.52741 17.684 5.95336 18.2542L5.91939 18.288L17.7406 19.86L22.1367 15.4898C22.9843 14.6471 23.9259 13.9138 24.9323 13.3071C25.9386 12.7004 27.0103 12.2204 28.1186 11.884C29.0758 11.5933 29.9498 11.8409 30.5109 12.3991C31.0724 12.9573 31.3214 13.8258 31.0291 14.7773C30.6906 15.8791 30.2078 16.9444 29.5975 17.9449C28.9873 18.9453 28.2496 19.8809 27.4019 20.724L23.0058 25.0942L24.5871 36.8458L24.6211 36.812C25.1951 36.2413 26.1255 36.2413 26.6991 36.812C27.2732 37.3827 27.2732 38.3076 26.6991 38.8778L25.0771 40.4902L25.7312 45.3524H34.4183C37.5009 45.3524 40.0001 42.868 40.0001 39.8035V11.1235C39.9997 8.05866 37.5005 5.57422 34.4179 5.57422Z" fill="#AF8C3E"/>
</g>
<path d="M53.18 19.8C53.18 18.78 53.04 18.03 52.76 17.55C52.48 17.05 51.92 16.8 51.08 16.8H50.48V16.2H58.28C60.46 16.2 62.35 16.56 63.95 17.28C65.57 18 66.38 19.39 66.38 21.45C66.38 22.39 66.06 23.24 65.42 24C64.78 24.76 63.8 25.36 62.48 25.8C64.32 26.1 65.6 26.65 66.32 27.45C67.06 28.23 67.43 29.28 67.43 30.6C67.43 32.62 66.63 34.03 65.03 34.83C63.45 35.61 61.5 36 59.18 36H53.18V19.8ZM58.73 25.35C59.55 25.35 60.32 25.2 61.04 24.9C61.78 24.58 62.38 24.12 62.84 23.52C63.3 22.9 63.53 22.16 63.53 21.3C63.53 20.4 63.26 19.65 62.72 19.05C62.18 18.43 61.49 17.98 60.65 17.7C59.83 17.4 58.99 17.25 58.13 17.25C57.43 17.25 56.68 17.35 55.88 17.55V25.35H58.73ZM58.73 34.95C60.55 34.95 61.95 34.59 62.93 33.87C63.93 33.15 64.43 32.11 64.43 30.75C64.43 29.39 63.94 28.35 62.96 27.63C62 26.91 60.59 26.55 58.73 26.55H55.88V34.53C56.84 34.81 57.79 34.95 58.73 34.95ZM76.6121 36.3C75.2521 36.3 74.0721 35.98 73.0721 35.34C72.0721 34.68 71.3121 33.79 70.7921 32.67C70.2721 31.55 70.0121 30.31 70.0121 28.95C70.0121 27.59 70.2721 26.35 70.7921 25.23C71.3121 24.11 72.0721 23.23 73.0721 22.59C74.0721 21.93 75.2521 21.6 76.6121 21.6C77.9721 21.6 79.1521 21.93 80.1521 22.59C81.1521 23.23 81.9121 24.11 82.4321 25.23C82.9521 26.35 83.2121 27.59 83.2121 28.95C83.2121 30.31 82.9521 31.55 82.4321 32.67C81.9121 33.79 81.1521 34.68 80.1521 35.34C79.1521 35.98 77.9721 36.3 76.6121 36.3ZM76.6121 35.1C77.3521 35.1 78.0021 34.83 78.5621 34.29C79.1421 33.75 79.5821 33.01 79.8821 32.07C80.2021 31.13 80.3621 30.09 80.3621 28.95C80.3621 27.81 80.2021 26.77 79.8821 25.83C79.5821 24.89 79.1421 24.15 78.5621 23.61C78.0021 23.07 77.3521 22.8 76.6121 22.8C75.8721 22.8 75.2121 23.07 74.6321 23.61C74.0721 24.15 73.6321 24.89 73.3121 25.83C73.0121 26.77 72.8621 27.81 72.8621 28.95C72.8621 30.09 73.0121 31.13 73.3121 32.07C73.6321 33.01 74.0721 33.75 74.6321 34.29C75.2121 34.83 75.8721 35.1 76.6121 35.1ZM92.5203 36.3C91.1603 36.3 89.9803 35.98 88.9803 35.34C87.9803 34.68 87.2203 33.79 86.7003 32.67C86.1803 31.55 85.9203 30.31 85.9203 28.95C85.9203 27.59 86.1803 26.35 86.7003 25.23C87.2203 24.11 87.9803 23.23 88.9803 22.59C89.9803 21.93 91.1603 21.6 92.5203 21.6C93.8803 21.6 95.0603 21.93 96.0603 22.59C97.0603 23.23 97.8203 24.11 98.3403 25.23C98.8603 26.35 99.1203 27.59 99.1203 28.95C99.1203 30.31 98.8603 31.55 98.3403 32.67C97.8203 33.79 97.0603 34.68 96.0603 35.34C95.0603 35.98 93.8803 36.3 92.5203 36.3ZM92.5203 35.1C93.2603 35.1 93.9103 34.83 94.4703 34.29C95.0503 33.75 95.4903 33.01 95.7903 32.07C96.1103 31.13 96.2703 30.09 96.2703 28.95C96.2703 27.81 96.1103 26.77 95.7903 25.83C95.4903 24.89 95.0503 24.15 94.4703 23.61C93.9103 23.07 93.2603 22.8 92.5203 22.8C91.7803 22.8 91.1203 23.07 90.5403 23.61C89.9803 24.15 89.5403 24.89 89.2203 25.83C88.9203 26.77 88.7703 27.81 88.7703 28.95C88.7703 30.09 88.9203 31.13 89.2203 32.07C89.5403 33.01 89.9803 33.75 90.5403 34.29C91.1203 34.83 91.7803 35.1 92.5203 35.1ZM113.289 36.3C111.589 36.3 110.139 35.5 108.939 33.9L105.339 29.1V36H102.639V19.8C102.639 18.78 102.499 18.03 102.219 17.55C101.939 17.05 101.379 16.8 100.539 16.8H99.9385V16.2H102.639C103.379 16.2 103.929 16.3 104.289 16.5C104.669 16.68 104.939 17.02 105.099 17.52C105.259 18.02 105.339 18.78 105.339 19.8V28.65L109.089 23.85C109.609 23.21 110.159 22.73 110.739 22.41C111.319 22.07 112.069 21.9 112.989 21.9H113.889V22.65C113.349 22.65 112.829 22.76 112.329 22.98C111.829 23.2 111.399 23.54 111.039 24L107.739 28.2L111.489 33C112.069 33.76 112.609 34.33 113.109 34.71C113.629 35.09 114.189 35.33 114.789 35.43V36C114.349 36.2 113.849 36.3 113.289 36.3ZM118.261 17.4C115.761 17.4 114.511 18.55 114.511 20.85H113.911V18.6C113.911 17 114.761 16.2 116.461 16.2H130.411V17.4H123.661V36H120.961V17.4H118.261ZM131.677 25.5C131.677 24.48 131.537 23.73 131.257 23.25C130.977 22.75 130.417 22.5 129.577 22.5H129.277V21.9H131.677C132.437 21.9 133.007 22.01 133.387 22.23C133.787 22.43 134.067 22.77 134.227 23.25H134.377C134.737 22.79 135.217 22.4 135.817 22.08C136.437 21.76 137.157 21.6 137.977 21.6C138.777 21.6 139.377 21.75 139.777 22.05C140.117 22.31 140.467 22.76 140.827 23.4L139.627 24.3C139.407 24 139.087 23.78 138.667 23.64C138.247 23.48 137.767 23.4 137.227 23.4C136.627 23.4 136.077 23.54 135.577 23.82C135.077 24.08 134.677 24.44 134.377 24.9V36H131.677V25.5ZM144.951 20.1C144.491 20.1 144.091 19.91 143.751 19.53C143.431 19.15 143.271 18.7 143.271 18.18C143.271 17.76 143.391 17.43 143.631 17.19C143.891 16.95 144.231 16.83 144.651 16.83C145.111 16.83 145.501 17.02 145.821 17.4C146.161 17.78 146.331 18.23 146.331 18.75C146.331 19.17 146.201 19.5 145.941 19.74C145.701 19.98 145.371 20.1 144.951 20.1ZM143.811 25.5C143.811 24.48 143.671 23.73 143.391 23.25C143.111 22.75 142.551 22.5 141.711 22.5H141.111V21.9H143.811C144.551 21.9 145.101 22 145.461 22.2C145.841 22.38 146.111 22.72 146.271 23.22C146.431 23.72 146.511 24.48 146.511 25.5V36H143.811V25.5ZM151.194 25.5C151.194 24.48 151.054 23.73 150.774 23.25C150.494 22.75 149.934 22.5 149.094 22.5H148.494V21.9H151.194C151.954 21.9 152.524 22.01 152.904 22.23C153.304 22.43 153.584 22.77 153.744 23.25H153.894C154.254 22.79 154.764 22.4 155.424 22.08C156.084 21.76 156.924 21.6 157.944 21.6C159.664 21.6 160.994 22.3 161.934 23.7C162.874 25.08 163.344 26.83 163.344 28.95C163.344 31.09 162.854 32.85 161.874 34.23C160.914 35.61 159.504 36.3 157.644 36.3C156.884 36.3 156.214 36.22 155.634 36.06C155.054 35.9 154.474 35.68 153.894 35.4V41.7H151.194V25.5ZM156.744 35.1C158.024 35.1 158.964 34.54 159.564 33.42C160.184 32.3 160.494 30.81 160.494 28.95C160.494 27.11 160.204 25.63 159.624 24.51C159.044 23.37 158.184 22.8 157.044 22.8C155.704 22.8 154.654 23.4 153.894 24.6V34.2C154.494 34.48 155.014 34.7 155.454 34.86C155.894 35.02 156.324 35.1 156.744 35.1Z" fill="white"/>
<defs>
<clipPath id="clip0_7769_1439">
<rect width="40" height="40" fill="white" transform="translate(0 5.5)"/>
</clipPath>
</defs>
</svg>
