<svg width="165" height="52" viewBox="0 0 165 52" fill="none" xmlns="http://www.w3.org/2000/svg">
<g clip-path="url(#clip0_7752_512)">
<path d="M14.7243 33.8242L3.17676 45.3038C3.90594 45.6509 4.71917 45.8509 5.58159 45.8509H21.1909L14.7243 33.8242Z" fill="#AF8C3E"/>
<path d="M0 23.5664V37.9966L9.45971 28.5926L0 23.5664Z" fill="#AF8C3E"/>
<path d="M34.4179 6.07422H5.58275C2.50015 6.07422 0.000976562 8.55866 0.000976562 11.6231V18.0013L2.25335 18.3009L3.87536 16.6884C4.4494 16.1178 5.37976 16.1178 5.95336 16.6884C6.52741 17.2591 6.52741 18.184 5.95336 18.7542L5.91939 18.788L17.7406 20.36L22.1367 15.9898C22.9843 15.1471 23.9259 14.4138 24.9323 13.8071C25.9386 13.2004 27.0103 12.7204 28.1186 12.384C29.0758 12.0933 29.9498 12.3409 30.5109 12.8991C31.0724 13.4573 31.3214 14.3258 31.0291 15.2773C30.6906 16.3791 30.2078 17.4444 29.5975 18.4449C28.9873 19.4453 28.2496 20.3809 27.4019 21.224L23.0058 25.5942L24.5871 37.3458L24.6211 37.312C25.1951 36.7413 26.1255 36.7413 26.6991 37.312C27.2732 37.8827 27.2732 38.8076 26.6991 39.3778L25.0771 40.9902L25.7312 45.8524H34.4183C37.5009 45.8524 40.0001 43.368 40.0001 40.3035V11.6235C39.9997 8.55866 37.5005 6.07422 34.4179 6.07422Z" fill="#AF8C3E"/>
</g>
<path d="M53.18 20.3C53.18 19.28 53.04 18.53 52.76 18.05C52.48 17.55 51.92 17.3 51.08 17.3H50.48V16.7H58.28C60.46 16.7 62.35 17.06 63.95 17.78C65.57 18.5 66.38 19.89 66.38 21.95C66.38 22.89 66.06 23.74 65.42 24.5C64.78 25.26 63.8 25.86 62.48 26.3C64.32 26.6 65.6 27.15 66.32 27.95C67.06 28.73 67.43 29.78 67.43 31.1C67.43 33.12 66.63 34.53 65.03 35.33C63.45 36.11 61.5 36.5 59.18 36.5H53.18V20.3ZM58.73 25.85C59.55 25.85 60.32 25.7 61.04 25.4C61.78 25.08 62.38 24.62 62.84 24.02C63.3 23.4 63.53 22.66 63.53 21.8C63.53 20.9 63.26 20.15 62.72 19.55C62.18 18.93 61.49 18.48 60.65 18.2C59.83 17.9 58.99 17.75 58.13 17.75C57.43 17.75 56.68 17.85 55.88 18.05V25.85H58.73ZM58.73 35.45C60.55 35.45 61.95 35.09 62.93 34.37C63.93 33.65 64.43 32.61 64.43 31.25C64.43 29.89 63.94 28.85 62.96 28.13C62 27.41 60.59 27.05 58.73 27.05H55.88V35.03C56.84 35.31 57.79 35.45 58.73 35.45ZM76.6121 36.8C75.2521 36.8 74.0721 36.48 73.0721 35.84C72.0721 35.18 71.3121 34.29 70.7921 33.17C70.2721 32.05 70.0121 30.81 70.0121 29.45C70.0121 28.09 70.2721 26.85 70.7921 25.73C71.3121 24.61 72.0721 23.73 73.0721 23.09C74.0721 22.43 75.2521 22.1 76.6121 22.1C77.9721 22.1 79.1521 22.43 80.1521 23.09C81.1521 23.73 81.9121 24.61 82.4321 25.73C82.9521 26.85 83.2121 28.09 83.2121 29.45C83.2121 30.81 82.9521 32.05 82.4321 33.17C81.9121 34.29 81.1521 35.18 80.1521 35.84C79.1521 36.48 77.9721 36.8 76.6121 36.8ZM76.6121 35.6C77.3521 35.6 78.0021 35.33 78.5621 34.79C79.1421 34.25 79.5821 33.51 79.8821 32.57C80.2021 31.63 80.3621 30.59 80.3621 29.45C80.3621 28.31 80.2021 27.27 79.8821 26.33C79.5821 25.39 79.1421 24.65 78.5621 24.11C78.0021 23.57 77.3521 23.3 76.6121 23.3C75.8721 23.3 75.2121 23.57 74.6321 24.11C74.0721 24.65 73.6321 25.39 73.3121 26.33C73.0121 27.27 72.8621 28.31 72.8621 29.45C72.8621 30.59 73.0121 31.63 73.3121 32.57C73.6321 33.51 74.0721 34.25 74.6321 34.79C75.2121 35.33 75.8721 35.6 76.6121 35.6ZM92.5203 36.8C91.1603 36.8 89.9803 36.48 88.9803 35.84C87.9803 35.18 87.2203 34.29 86.7003 33.17C86.1803 32.05 85.9203 30.81 85.9203 29.45C85.9203 28.09 86.1803 26.85 86.7003 25.73C87.2203 24.61 87.9803 23.73 88.9803 23.09C89.9803 22.43 91.1603 22.1 92.5203 22.1C93.8803 22.1 95.0603 22.43 96.0603 23.09C97.0603 23.73 97.8203 24.61 98.3403 25.73C98.8603 26.85 99.1203 28.09 99.1203 29.45C99.1203 30.81 98.8603 32.05 98.3403 33.17C97.8203 34.29 97.0603 35.18 96.0603 35.84C95.0603 36.48 93.8803 36.8 92.5203 36.8ZM92.5203 35.6C93.2603 35.6 93.9103 35.33 94.4703 34.79C95.0503 34.25 95.4903 33.51 95.7903 32.57C96.1103 31.63 96.2703 30.59 96.2703 29.45C96.2703 28.31 96.1103 27.27 95.7903 26.33C95.4903 25.39 95.0503 24.65 94.4703 24.11C93.9103 23.57 93.2603 23.3 92.5203 23.3C91.7803 23.3 91.1203 23.57 90.5403 24.11C89.9803 24.65 89.5403 25.39 89.2203 26.33C88.9203 27.27 88.7703 28.31 88.7703 29.45C88.7703 30.59 88.9203 31.63 89.2203 32.57C89.5403 33.51 89.9803 34.25 90.5403 34.79C91.1203 35.33 91.7803 35.6 92.5203 35.6ZM113.289 36.8C111.589 36.8 110.139 36 108.939 34.4L105.339 29.6V36.5H102.639V20.3C102.639 19.28 102.499 18.53 102.219 18.05C101.939 17.55 101.379 17.3 100.539 17.3H99.9385V16.7H102.639C103.379 16.7 103.929 16.8 104.289 17C104.669 17.18 104.939 17.52 105.099 18.02C105.259 18.52 105.339 19.28 105.339 20.3V29.15L109.089 24.35C109.609 23.71 110.159 23.23 110.739 22.91C111.319 22.57 112.069 22.4 112.989 22.4H113.889V23.15C113.349 23.15 112.829 23.26 112.329 23.48C111.829 23.7 111.399 24.04 111.039 24.5L107.739 28.7L111.489 33.5C112.069 34.26 112.609 34.83 113.109 35.21C113.629 35.59 114.189 35.83 114.789 35.93V36.5C114.349 36.7 113.849 36.8 113.289 36.8ZM118.261 17.9C115.761 17.9 114.511 19.05 114.511 21.35H113.911V19.1C113.911 17.5 114.761 16.7 116.461 16.7H130.411V17.9H123.661V36.5H120.961V17.9H118.261ZM131.677 26C131.677 24.98 131.537 24.23 131.257 23.75C130.977 23.25 130.417 23 129.577 23H129.277V22.4H131.677C132.437 22.4 133.007 22.51 133.387 22.73C133.787 22.93 134.067 23.27 134.227 23.75H134.377C134.737 23.29 135.217 22.9 135.817 22.58C136.437 22.26 137.157 22.1 137.977 22.1C138.777 22.1 139.377 22.25 139.777 22.55C140.117 22.81 140.467 23.26 140.827 23.9L139.627 24.8C139.407 24.5 139.087 24.28 138.667 24.14C138.247 23.98 137.767 23.9 137.227 23.9C136.627 23.9 136.077 24.04 135.577 24.32C135.077 24.58 134.677 24.94 134.377 25.4V36.5H131.677V26ZM144.951 20.6C144.491 20.6 144.091 20.41 143.751 20.03C143.431 19.65 143.271 19.2 143.271 18.68C143.271 18.26 143.391 17.93 143.631 17.69C143.891 17.45 144.231 17.33 144.651 17.33C145.111 17.33 145.501 17.52 145.821 17.9C146.161 18.28 146.331 18.73 146.331 19.25C146.331 19.67 146.201 20 145.941 20.24C145.701 20.48 145.371 20.6 144.951 20.6ZM143.811 26C143.811 24.98 143.671 24.23 143.391 23.75C143.111 23.25 142.551 23 141.711 23H141.111V22.4H143.811C144.551 22.4 145.101 22.5 145.461 22.7C145.841 22.88 146.111 23.22 146.271 23.72C146.431 24.22 146.511 24.98 146.511 26V36.5H143.811V26ZM151.194 26C151.194 24.98 151.054 24.23 150.774 23.75C150.494 23.25 149.934 23 149.094 23H148.494V22.4H151.194C151.954 22.4 152.524 22.51 152.904 22.73C153.304 22.93 153.584 23.27 153.744 23.75H153.894C154.254 23.29 154.764 22.9 155.424 22.58C156.084 22.26 156.924 22.1 157.944 22.1C159.664 22.1 160.994 22.8 161.934 24.2C162.874 25.58 163.344 27.33 163.344 29.45C163.344 31.59 162.854 33.35 161.874 34.73C160.914 36.11 159.504 36.8 157.644 36.8C156.884 36.8 156.214 36.72 155.634 36.56C155.054 36.4 154.474 36.18 153.894 35.9V42.2H151.194V26ZM156.744 35.6C158.024 35.6 158.964 35.04 159.564 33.92C160.184 32.8 160.494 31.31 160.494 29.45C160.494 27.61 160.204 26.13 159.624 25.01C159.044 23.87 158.184 23.3 157.044 23.3C155.704 23.3 154.654 23.9 153.894 25.1V34.7C154.494 34.98 155.014 35.2 155.454 35.36C155.894 35.52 156.324 35.6 156.744 35.6Z" fill="#0E1730"/>
<defs>
<clipPath id="clip0_7752_512">
<rect width="40" height="40" fill="white" transform="translate(0 6)"/>
</clipPath>
</defs>
</svg>
