<svg width="165" height="52" viewBox="0 0 165 52" fill="none" xmlns="http://www.w3.org/2000/svg">
<g clip-path="url(#clip0_7769_1479)">
<path d="M14.7243 33.8008L3.17676 45.2803C3.90594 45.6275 4.71917 45.8274 5.58159 45.8274H21.1909L14.7243 33.8008Z" fill="#AF8C3E"/>
<path d="M0 23.543V37.9732L9.45971 28.5692L0 23.543Z" fill="#AF8C3E"/>
<path d="M34.4179 6.05078H5.58275C2.50015 6.05078 0.000976562 8.53522 0.000976562 11.5997V17.9779L2.25335 18.2775L3.87536 16.665C4.4494 16.0943 5.37976 16.0943 5.95336 16.665C6.52741 17.2357 6.52741 18.1606 5.95336 18.7308L5.91939 18.7646L17.7406 20.3366L22.1367 15.9663C22.9843 15.1237 23.9259 14.3903 24.9323 13.7837C25.9386 13.177 27.0103 12.697 28.1186 12.3606C29.0758 12.0699 29.9498 12.3174 30.5109 12.8757C31.0724 13.4339 31.3214 14.3023 31.0291 15.2539C30.6906 16.3557 30.2078 17.421 29.5975 18.4215C28.9873 19.4219 28.2496 20.3575 27.4019 21.2006L23.0058 25.5708L24.5871 37.3223L24.6211 37.2886C25.1951 36.7179 26.1255 36.7179 26.6991 37.2886C27.2732 37.8592 27.2732 38.7841 26.6991 39.3543L25.0771 40.9668L25.7312 45.829H34.4183C37.5009 45.829 40.0001 43.3446 40.0001 40.2801V11.6001C39.9997 8.53522 37.5005 6.05078 34.4179 6.05078Z" fill="#AF8C3E"/>
</g>
<path d="M53.18 20.2766C53.18 19.2566 53.04 18.5066 52.76 18.0266C52.48 17.5266 51.92 17.2766 51.08 17.2766H50.48V16.6766H58.28C60.46 16.6766 62.35 17.0366 63.95 17.7566C65.57 18.4766 66.38 19.8666 66.38 21.9266C66.38 22.8666 66.06 23.7166 65.42 24.4766C64.78 25.2366 63.8 25.8366 62.48 26.2766C64.32 26.5766 65.6 27.1266 66.32 27.9266C67.06 28.7066 67.43 29.7566 67.43 31.0766C67.43 33.0966 66.63 34.5066 65.03 35.3066C63.45 36.0866 61.5 36.4766 59.18 36.4766H53.18V20.2766ZM58.73 25.8266C59.55 25.8266 60.32 25.6766 61.04 25.3766C61.78 25.0566 62.38 24.5966 62.84 23.9966C63.3 23.3766 63.53 22.6366 63.53 21.7766C63.53 20.8766 63.26 20.1266 62.72 19.5266C62.18 18.9066 61.49 18.4566 60.65 18.1766C59.83 17.8766 58.99 17.7266 58.13 17.7266C57.43 17.7266 56.68 17.8266 55.88 18.0266V25.8266H58.73ZM58.73 35.4266C60.55 35.4266 61.95 35.0666 62.93 34.3466C63.93 33.6266 64.43 32.5866 64.43 31.2266C64.43 29.8666 63.94 28.8266 62.96 28.1066C62 27.3866 60.59 27.0266 58.73 27.0266H55.88V35.0066C56.84 35.2866 57.79 35.4266 58.73 35.4266ZM76.6121 36.7766C75.2521 36.7766 74.0721 36.4566 73.0721 35.8166C72.0721 35.1566 71.3121 34.2666 70.7921 33.1466C70.2721 32.0266 70.0121 30.7866 70.0121 29.4266C70.0121 28.0666 70.2721 26.8266 70.7921 25.7066C71.3121 24.5866 72.0721 23.7066 73.0721 23.0666C74.0721 22.4066 75.2521 22.0766 76.6121 22.0766C77.9721 22.0766 79.1521 22.4066 80.1521 23.0666C81.1521 23.7066 81.9121 24.5866 82.4321 25.7066C82.9521 26.8266 83.2121 28.0666 83.2121 29.4266C83.2121 30.7866 82.9521 32.0266 82.4321 33.1466C81.9121 34.2666 81.1521 35.1566 80.1521 35.8166C79.1521 36.4566 77.9721 36.7766 76.6121 36.7766ZM76.6121 35.5766C77.3521 35.5766 78.0021 35.3066 78.5621 34.7666C79.1421 34.2266 79.5821 33.4866 79.8821 32.5466C80.2021 31.6066 80.3621 30.5666 80.3621 29.4266C80.3621 28.2866 80.2021 27.2466 79.8821 26.3066C79.5821 25.3666 79.1421 24.6266 78.5621 24.0866C78.0021 23.5466 77.3521 23.2766 76.6121 23.2766C75.8721 23.2766 75.2121 23.5466 74.6321 24.0866C74.0721 24.6266 73.6321 25.3666 73.3121 26.3066C73.0121 27.2466 72.8621 28.2866 72.8621 29.4266C72.8621 30.5666 73.0121 31.6066 73.3121 32.5466C73.6321 33.4866 74.0721 34.2266 74.6321 34.7666C75.2121 35.3066 75.8721 35.5766 76.6121 35.5766ZM92.5203 36.7766C91.1603 36.7766 89.9803 36.4566 88.9803 35.8166C87.9803 35.1566 87.2203 34.2666 86.7003 33.1466C86.1803 32.0266 85.9203 30.7866 85.9203 29.4266C85.9203 28.0666 86.1803 26.8266 86.7003 25.7066C87.2203 24.5866 87.9803 23.7066 88.9803 23.0666C89.9803 22.4066 91.1603 22.0766 92.5203 22.0766C93.8803 22.0766 95.0603 22.4066 96.0603 23.0666C97.0603 23.7066 97.8203 24.5866 98.3403 25.7066C98.8603 26.8266 99.1203 28.0666 99.1203 29.4266C99.1203 30.7866 98.8603 32.0266 98.3403 33.1466C97.8203 34.2666 97.0603 35.1566 96.0603 35.8166C95.0603 36.4566 93.8803 36.7766 92.5203 36.7766ZM92.5203 35.5766C93.2603 35.5766 93.9103 35.3066 94.4703 34.7666C95.0503 34.2266 95.4903 33.4866 95.7903 32.5466C96.1103 31.6066 96.2703 30.5666 96.2703 29.4266C96.2703 28.2866 96.1103 27.2466 95.7903 26.3066C95.4903 25.3666 95.0503 24.6266 94.4703 24.0866C93.9103 23.5466 93.2603 23.2766 92.5203 23.2766C91.7803 23.2766 91.1203 23.5466 90.5403 24.0866C89.9803 24.6266 89.5403 25.3666 89.2203 26.3066C88.9203 27.2466 88.7703 28.2866 88.7703 29.4266C88.7703 30.5666 88.9203 31.6066 89.2203 32.5466C89.5403 33.4866 89.9803 34.2266 90.5403 34.7666C91.1203 35.3066 91.7803 35.5766 92.5203 35.5766ZM113.289 36.7766C111.589 36.7766 110.139 35.9766 108.939 34.3766L105.339 29.5766V36.4766H102.639V20.2766C102.639 19.2566 102.499 18.5066 102.219 18.0266C101.939 17.5266 101.379 17.2766 100.539 17.2766H99.9385V16.6766H102.639C103.379 16.6766 103.929 16.7766 104.289 16.9766C104.669 17.1566 104.939 17.4966 105.099 17.9966C105.259 18.4966 105.339 19.2566 105.339 20.2766V29.1266L109.089 24.3266C109.609 23.6866 110.159 23.2066 110.739 22.8866C111.319 22.5466 112.069 22.3766 112.989 22.3766H113.889V23.1266C113.349 23.1266 112.829 23.2366 112.329 23.4566C111.829 23.6766 111.399 24.0166 111.039 24.4766L107.739 28.6766L111.489 33.4766C112.069 34.2366 112.609 34.8066 113.109 35.1866C113.629 35.5666 114.189 35.8066 114.789 35.9066V36.4766C114.349 36.6766 113.849 36.7766 113.289 36.7766ZM118.261 17.8766C115.761 17.8766 114.511 19.0266 114.511 21.3266H113.911V19.0766C113.911 17.4766 114.761 16.6766 116.461 16.6766H130.411V17.8766H123.661V36.4766H120.961V17.8766H118.261ZM131.677 25.9766C131.677 24.9566 131.537 24.2066 131.257 23.7266C130.977 23.2266 130.417 22.9766 129.577 22.9766H129.277V22.3766H131.677C132.437 22.3766 133.007 22.4866 133.387 22.7066C133.787 22.9066 134.067 23.2466 134.227 23.7266H134.377C134.737 23.2666 135.217 22.8766 135.817 22.5566C136.437 22.2366 137.157 22.0766 137.977 22.0766C138.777 22.0766 139.377 22.2266 139.777 22.5266C140.117 22.7866 140.467 23.2366 140.827 23.8766L139.627 24.7766C139.407 24.4766 139.087 24.2566 138.667 24.1166C138.247 23.9566 137.767 23.8766 137.227 23.8766C136.627 23.8766 136.077 24.0166 135.577 24.2966C135.077 24.5566 134.677 24.9166 134.377 25.3766V36.4766H131.677V25.9766ZM144.951 20.5766C144.491 20.5766 144.091 20.3866 143.751 20.0066C143.431 19.6266 143.271 19.1766 143.271 18.6566C143.271 18.2366 143.391 17.9066 143.631 17.6666C143.891 17.4266 144.231 17.3066 144.651 17.3066C145.111 17.3066 145.501 17.4966 145.821 17.8766C146.161 18.2566 146.331 18.7066 146.331 19.2266C146.331 19.6466 146.201 19.9766 145.941 20.2166C145.701 20.4566 145.371 20.5766 144.951 20.5766ZM143.811 25.9766C143.811 24.9566 143.671 24.2066 143.391 23.7266C143.111 23.2266 142.551 22.9766 141.711 22.9766H141.111V22.3766H143.811C144.551 22.3766 145.101 22.4766 145.461 22.6766C145.841 22.8566 146.111 23.1966 146.271 23.6966C146.431 24.1966 146.511 24.9566 146.511 25.9766V36.4766H143.811V25.9766ZM151.194 25.9766C151.194 24.9566 151.054 24.2066 150.774 23.7266C150.494 23.2266 149.934 22.9766 149.094 22.9766H148.494V22.3766H151.194C151.954 22.3766 152.524 22.4866 152.904 22.7066C153.304 22.9066 153.584 23.2466 153.744 23.7266H153.894C154.254 23.2666 154.764 22.8766 155.424 22.5566C156.084 22.2366 156.924 22.0766 157.944 22.0766C159.664 22.0766 160.994 22.7766 161.934 24.1766C162.874 25.5566 163.344 27.3066 163.344 29.4266C163.344 31.5666 162.854 33.3266 161.874 34.7066C160.914 36.0866 159.504 36.7766 157.644 36.7766C156.884 36.7766 156.214 36.6966 155.634 36.5366C155.054 36.3766 154.474 36.1566 153.894 35.8766V42.1766H151.194V25.9766ZM156.744 35.5766C158.024 35.5766 158.964 35.0166 159.564 33.8966C160.184 32.7766 160.494 31.2866 160.494 29.4266C160.494 27.5866 160.204 26.1066 159.624 24.9866C159.044 23.8466 158.184 23.2766 157.044 23.2766C155.704 23.2766 154.654 23.8766 153.894 25.0766V34.6766C154.494 34.9566 155.014 35.1766 155.454 35.3366C155.894 35.4966 156.324 35.5766 156.744 35.5766Z" fill="#0E1730"/>
<defs>
<clipPath id="clip0_7769_1479">
<rect width="40" height="40" fill="white" transform="translate(0 5.97656)"/>
</clipPath>
</defs>
</svg>
